<svg xmlns="http://www.w3.org/2000/svg" width="512" height="512" viewBox="0 0 512 512" fill="none">
  <defs>
    <linearGradient id="bg" x1="0" y1="0" x2="1" y2="1">
      <stop offset="0" stop-color="#0d47a1" />
      <stop offset="1" stop-color="#1976d2" />
    </linearGradient>
    <filter id="glow" x="-20%" y="-20%" width="140%" height="140%">
      <feGaussianBlur stdDeviation="6" result="blur" />
      <feMerge>
        <feMergeNode in="blur" />
        <feMergeNode in="SourceGraphic" />
      </feMerge>
    </filter>
  </defs>
  <rect width="512" height="512" rx="140" fill="url(#bg)" />
  <g filter="url(#glow)" transform="translate(50 40)">
    <circle cx="206" cy="206" r="192" fill="#f7fafc" stroke="#0f4ea8" stroke-width="14" />
    <g transform="translate(46 32)">
      <rect x="152" y="36" width="108" height="220" rx="16" fill="#c62828" />
      <rect x="92" y="120" width="228" height="80" rx="16" fill="#c62828" />
      <rect x="170" y="64" width="68" height="180" rx="12" fill="#e53935" />
      <rect x="120" y="140" width="180" height="48" rx="12" fill="#e53935" />
    </g>
    <path d="M256 204c-18 24-48 52-92 64-18 5-40 8-56 2 12 26 30 48 56 62 29 16 65 20 92 20s63-4 92-20c26-14 44-36 56-62-16 6-38 3-56-2-44-12-74-40-92-64z" fill="#fff" />
    <path d="M256 214c-14 16-46 44-86 56-15 4-30 5-42 3 11 18 24 32 44 42 24 12 54 16 84 16s60-4 84-16c20-10 33-24 44-42-12 2-27 1-42-3-40-12-72-40-86-56z" fill="#e2e8f0" />
    <path d="M256 250c-10 16-34 34-64 40-8 2-18 2-26 0 8 10 18 18 32 24 18 6 38 8 58 8s40-2 58-8c14-6 24-14 32-24-8 2-18 2-26 0-30-6-54-24-64-40z" fill="#cbd5e1" />
    <path d="M248 230c-6 10-18 22-34 28-6 2-12 2-18 0 6 8 14 14 24 18 12 4 26 6 40 6s28-2 40-6c10-4 18-10 24-18-6 2-12 2-18 0-16-6-28-18-34-28z" fill="#1e293b" opacity="0.12" />
  </g>
  <text x="256" y="470" text-anchor="middle" font-family="" font-size="46" font-weight="700" fill="#e9eef7" letter-spacing="2">JWRC</text>
</svg>
